<?xml version="1.0" encoding="iso-8859-1"?>
<!-- Generator: Adobe Illustrator 19.0.0, SVG Export Plug-In . SVG Version: 6.00 Build 0)  -->
<svg version="1.1" id="Capa_1" xmlns="http://www.w3.org/2000/svg" xmlns:xlink="http://www.w3.org/1999/xlink" x="0px" y="0px"
	 viewBox="0 0 512 512" style="enable-background:new 0 0 512 512;" xml:space="preserve">
<g>
	<g>
		<path d="M400.601,0H111.399C49.974,0,0,49.974,0,111.4s49.974,111.4,111.399,111.4H400.6c61.426,0,111.4-49.974,111.4-111.4
			S462.026,0,400.601,0z M111.399,192.799C66.516,192.8,30,156.284,30,111.4C30,66.516,66.516,30,111.399,30
			c44.885,0,81.4,36.516,81.4,81.4C192.799,156.284,156.283,192.799,111.399,192.799z"/>
	</g>
</g>
<g>
	<g>
		<path d="M400.601,289.201H111.399C49.974,289.201,0,339.174,0,400.6C0,462.027,49.974,512,111.399,512H400.6
			c61.426,0,111.4-49.973,111.4-111.4C512,339.174,462.026,289.201,400.601,289.201z M400.601,482c-44.885,0-81.4-36.516-81.4-81.4
			c0-44.883,36.516-81.398,81.4-81.398c44.884,0,81.399,36.516,81.399,81.398C482,445.484,445.484,482,400.601,482z"/>
	</g>
</g>
<g>
</g>
<g>
</g>
<g>
</g>
<g>
</g>
<g>
</g>
<g>
</g>
<g>
</g>
<g>
</g>
<g>
</g>
<g>
</g>
<g>
</g>
<g>
</g>
<g>
</g>
<g>
</g>
<g>
</g>
</svg>
