<?xml version="1.0" encoding="iso-8859-1"?>
<!-- Generator: Adobe Illustrator 19.0.0, SVG Export Plug-In . SVG Version: 6.00 Build 0)  -->
<svg version="1.1" id="Capa_1" xmlns="http://www.w3.org/2000/svg" xmlns:xlink="http://www.w3.org/1999/xlink" x="0px" y="0px"
	 viewBox="0 0 512 512" style="enable-background:new 0 0 512 512;" xml:space="preserve">
<g>
	<g>
		<path d="M346.047,166.026h-42.066c-1.844,14.465-2.921,29.477-2.921,44.987s1.078,30.522,2.921,44.987h42.066
			c24.807,0,44.987-20.18,44.987-44.987C391.034,186.206,370.854,166.026,346.047,166.026z"/>
	</g>
</g>
<g>
	<g>
		<path d="M406.03,16.068c-43.662,0-81.078,49.529-96.899,119.966h36.916c41.341,0,74.979,33.637,74.979,74.979
			s-33.637,74.979-74.979,74.979h-36.916c15.821,70.437,53.238,119.966,96.899,119.966c57.973,0,105.97-87.28,105.97-194.944
			S464.002,16.068,406.03,16.068z"/>
	</g>
</g>
<g>
	<g>
		<path d="M210.086,351.931v9.039c0,8.274-6.722,14.996-14.996,14.996h-14.996v-29.049c-4.593-0.387-9.167-0.943-13.795-0.943
			c-27.623,0-46.188,0-76.179,0v104.97c0,24.807,20.18,44.987,44.987,44.987c24.807,0,44.987-20.18,44.987-44.987v-44.987h14.996
			c23.896,0,43.309-18.776,44.718-42.324C230.22,358.869,220.357,354.755,210.086,351.931z"/>
	</g>
</g>
<g>
	<g>
		<path d="M319.955,46.659l-51.586,31.192c-28.721,17.346-62.791,26.846-96.562,27.813c-31.346,24.595-51.694,62.461-51.694,105.349
			s20.348,80.754,51.694,105.349c33.771,0.967,67.842,10.465,96.562,27.813l51.586,31.19
			c-29.391-34.491-48.886-95.373-48.886-164.352S290.564,81.149,319.955,46.659z"/>
	</g>
</g>
<g>
	<g>
		<path d="M128.517,106.043h-18.304c-57.883,0-107.069,44.687-110.068,99.272c-3.178,61.648,46.074,110.668,104.97,110.668h23.401
			c-23.784-28.549-38.397-64.971-38.397-104.97S104.733,134.591,128.517,106.043z"/>
	</g>
</g>
<g>
</g>
<g>
</g>
<g>
</g>
<g>
</g>
<g>
</g>
<g>
</g>
<g>
</g>
<g>
</g>
<g>
</g>
<g>
</g>
<g>
</g>
<g>
</g>
<g>
</g>
<g>
</g>
<g>
</g>
</svg>
