<?xml version="1.0" encoding="UTF-8" standalone="no"?>
<!DOCTYPE svg PUBLIC "-//W3C//DTD SVG 1.1//EN" "http://www.w3.org/Graphics/SVG/1.1/DTD/svg11.dtd">
<svg width="100%" height="100%" viewBox="0 0 16 16" version="1.1" xmlns="http://www.w3.org/2000/svg" xmlns:xlink="http://www.w3.org/1999/xlink" xml:space="preserve" xmlns:serif="http://www.serif.com/" style="fill-rule:evenodd;clip-rule:evenodd;stroke-linejoin:round;stroke-miterlimit:2;">
    <g transform="matrix(0.0697168,0,0,0.0697168,0,0)">
        <path d="M214.419,32.12C214.007,29.161 211.878,26.727 209,25.927L116.76,0.275C115.446,-0.091 114.056,-0.091 112.741,0.275L20.501,25.927C17.622,26.727 15.493,29.16 15.082,32.12C14.547,35.967 2.342,126.864 33.647,172.081C64.915,217.246 111.042,228.82 112.99,229.29C113.569,229.43 114.159,229.499 114.751,229.499C115.343,229.499 115.933,229.429 116.512,229.29C118.461,228.819 164.588,217.245 195.855,172.081C227.159,126.864 214.954,35.967 214.419,32.12ZM182.383,162.719C155.263,201.893 114.639,211.705 114.639,211.705L114.639,114.75L30.918,114.75C26.057,78.362 31.252,40.985 31.252,40.985L114.638,17.795L114.638,114.75L198.359,114.75C195.996,132.443 191.256,149.903 182.383,162.719Z" style="fill-rule:nonzero;"/>
    </g>
</svg>
