<?xml version="1.0" encoding="iso-8859-1"?>
<!-- Generator: Adobe Illustrator 17.1.0, SVG Export Plug-In . SVG Version: 6.00 Build 0)  -->
<!DOCTYPE svg PUBLIC "-//W3C//DTD SVG 1.1//EN" "http://www.w3.org/Graphics/SVG/1.1/DTD/svg11.dtd">
<svg version="1.1" id="Capa_1" xmlns="http://www.w3.org/2000/svg" xmlns:xlink="http://www.w3.org/1999/xlink" x="0px" y="0px"
	 viewBox="0 0 229.5 229.5" style="enable-background:new 0 0 229.5 229.5;" xml:space="preserve">
<path d="M214.419,32.12c-0.412-2.959-2.541-5.393-5.419-6.193l-92.24-25.652c-1.314-0.366-2.704-0.366-4.019,0l-92.24,25.652
	c-2.879,0.8-5.008,3.233-5.419,6.193c-0.535,3.847-12.74,94.744,18.565,139.961c31.268,45.165,77.395,56.739,79.343,57.209
	c0.579,0.14,1.169,0.209,1.761,0.209s1.182-0.07,1.761-0.209c1.949-0.471,48.076-12.045,79.343-57.209
	C227.159,126.864,214.954,35.967,214.419,32.12z M182.383,162.719c-27.12,39.174-67.744,48.986-67.744,48.986V114.75H30.918
	c-4.861-36.388,0.334-73.765,0.334-73.765l83.386-23.19v96.955h83.721C195.996,132.443,191.256,149.903,182.383,162.719z"/>
<g>
</g>
<g>
</g>
<g>
</g>
<g>
</g>
<g>
</g>
<g>
</g>
<g>
</g>
<g>
</g>
<g>
</g>
<g>
</g>
<g>
</g>
<g>
</g>
<g>
</g>
<g>
</g>
<g>
</g>
</svg>
