<svg height="398pt" viewBox="0 -12 398 398" width="398pt" xmlns="http://www.w3.org/2000/svg"><path d="m272.300781 316.988281c0 1.523438 1.234375 2.761719 2.761719 2.761719 1.523438 0 2.761719-1.238281 2.761719-2.761719 0-1.527343-1.238281-2.761719-2.761719-2.761719s-2.761719 1.234376-2.761719 2.761719zm0 0"/><path d="m84.679688 128.960938v168.828124c.003906 13.042969-5.511719 25.476563-15.1875 34.222657h168.507812v-58.101563c.015625-14.351562 11.648438-25.984375 26-26h6.464844v-35c.027344-24.816406 20.136718-44.929687 44.957031-44.957031h17.15625c5.261719-.003906 10.480469.921875 15.421875 2.734375v-41.726562c-.023438-18.894532-15.335938-34.203126-34.230469-34.222657h-194.871093c-18.890626.023438-34.195313 15.332031-34.21875 34.222657zm0 0"/><path d="m308.226562 319.75c1.527344 0 2.761719-1.238281 2.761719-2.761719 0-1.527343-1.234375-2.761719-2.761719-2.761719-1.523437 0-2.761718 1.234376-2.761718 2.761719.003906 1.523438 1.238281 2.757813 2.761718 2.761719zm0 0"/><path d="m315.421875 179.960938c-18.195313.019531-32.9375 14.765624-32.957031 32.957031v35h83.070312v-35c-.019531-18.191407-14.761718-32.9375-32.957031-32.957031zm0 0"/><path d="m34.21875 332.011719h4.230469c18.894531-.019531 34.207031-15.328125 34.230469-34.222657v-168.828124c.027343-25.515626 20.707031-46.191407 46.21875-46.222657h179.773437v-2.1875c-.019531-18.894531-15.328125-34.207031-34.222656-34.230469h-75.488281c-4.515626 0-8.820313-1.898437-11.859376-5.234374l-27.378906-29.945313c-6.488281-7.089844-15.652344-11.1289062-25.261718-11.140625h-90.242188c-18.890625.0234375-34.1953125 15.328125-34.21875 34.21875v263.570312c.0234375 18.890626 15.328125 34.199219 34.21875 34.222657zm0 0"/><path d="m372.9375 319.75c1.523438 0 2.761719-1.238281 2.761719-2.761719 0-1.527343-1.238281-2.761719-2.761719-2.761719-1.527344 0-2.761719 1.234376-2.761719 2.761719 0 1.523438 1.234375 2.757813 2.761719 2.761719zm0 0"/><path d="m276.464844 260.265625c-.683594-.003906-1.359375-.121094-2-.351563h-10.464844c-7.726562.007813-13.992188 6.273438-14 14v86.144532c.007812 7.730468 6.273438 13.992187 14 14h120c7.730469-.007813 13.992188-6.269532 14-14v-86.144532c-.007812-7.726562-6.269531-13.992187-14-14h-10.457031c-1.296875.46875-2.714844.46875-4.011719 0h-91.0625c-.644531.230469-1.320312.351563-2.003906.351563zm96.472656 47.484375c5.101562 0 9.238281 4.136719 9.238281 9.238281 0 5.101563-4.136719 9.238281-9.238281 9.238281s-9.238281-4.136718-9.238281-9.238281c.003906-5.101562 4.136719-9.234375 9.238281-9.238281zm-33.164062 0c5.101562 0 9.238281 4.132812 9.238281 9.238281 0 5.101563-4.136719 9.238281-9.238281 9.238281-5.101563 0-9.238282-4.136718-9.238282-9.238281.003906-5.101562 4.136719-9.234375 9.238282-9.238281zm-31.546876 0c5.101563 0 9.238282 4.136719 9.238282 9.238281 0 5.101563-4.136719 9.238281-9.238282 9.238281-5.101562 0-9.238281-4.136718-9.238281-9.238281.007813-5.101562 4.140625-9.234375 9.238281-9.238281zm-23.925781 9.238281c0 5.101563-4.136719 9.238281-9.238281 9.238281s-9.238281-4.136718-9.238281-9.238281c0-5.101562 4.136719-9.238281 9.238281-9.238281 5.097656.003906 9.230469 4.136719 9.238281 9.238281zm0 0"/><path d="m339.773438 319.75c1.523437 0 2.761718-1.238281 2.761718-2.761719 0-1.527343-1.238281-2.761719-2.761718-2.761719-1.527344 0-2.761719 1.234376-2.761719 2.761719 0 1.523438 1.234375 2.757813 2.761719 2.761719zm0 0"/></svg>