<svg width="180" height="121" viewBox="0 0 180 121" fill="none" xmlns="http://www.w3.org/2000/svg">
<path d="M51.2842 41.6403C48.1494 28.3918 44.3509 25.1835 41.7152 24.828C37.4788 24.2518 33.0236 30.5617 31.6628 33.0415L29.8345 32.038C29.8905 31.9364 31.2232 29.5214 33.3213 27.1747C36.2774 23.8683 39.1951 22.3832 41.9936 22.7632C44.2773 23.0732 46.3543 24.6423 48.1634 27.4269C50.1441 30.4723 51.8761 35.094 53.3122 41.1622L51.2842 41.6403Z" fill="#49542F"/>
<path d="M103.264 39.9712C103.26 39.9519 102.863 38.0395 102.236 36.064C101.309 33.1412 100.614 32.3583 100.386 32.1674C100.14 32.4074 99.3637 33.4757 98.5214 37.8749L96.4741 37.4826C97.4846 32.206 98.6107 30.0484 100.362 30.0361C100.367 30.0361 100.372 30.0361 100.376 30.0361C101.812 30.0361 102.966 31.5948 104.113 35.0868C104.836 37.2899 105.288 39.4563 105.306 39.5474L103.264 39.9712Z" fill="#49542F"/>
<path d="M73.2366 42.7784C70.3768 30.8013 66.7867 21.4863 62.5696 15.0923C59.2229 10.0206 55.4856 6.7825 51.4594 5.47079C43.8834 2.99973 37.6716 8.19228 37.6103 8.24482L36.2583 6.65816C36.5473 6.41123 43.4316 0.660015 52.1074 3.48834C56.5942 4.95066 60.701 8.46898 64.3121 13.9452C68.664 20.5423 72.3505 30.0798 75.2664 42.295L73.2366 42.7784Z" fill="#49542F"/>
<path d="M80.023 47.0003L77.939 46.9338C78.3032 35.3736 79.65 26.2809 81.9389 19.9097C83.79 14.7592 86.2733 11.3285 89.3188 9.71553C93.8581 7.31101 97.8861 9.79959 98.0542 9.90642L96.9421 11.67C96.8125 11.5894 93.7233 9.71903 90.2645 11.5736C86.0316 13.8433 80.8181 21.8309 80.023 47.0003Z" fill="#49542F"/>
<path d="M88.9703 40.9993L86.8862 40.924C87.1612 33.3305 89.2417 26.7054 93.07 21.2309C96.133 16.8527 100.306 13.21 105.476 10.4062C114.229 5.65846 122.705 4.9667 123.061 4.94043L123.218 7.0192L123.14 5.97894L123.218 7.0192C123.134 7.02621 114.772 7.71621 106.408 12.2713C101.539 14.9227 97.6181 18.35 94.753 22.4603C91.1769 27.5933 89.2295 33.8313 88.9703 40.9993Z" fill="#49542F"/>
<path d="M96.2344 36.3986L94.2607 35.7244C98.3657 23.7263 103.958 16.8315 110.884 15.2308C114.586 14.3745 118.67 15.1012 122.693 17.3324C125.688 18.9926 127.593 20.8875 127.672 20.9663L126.195 22.4391L126.934 21.7036L126.197 22.4409C126.18 22.4234 124.383 20.6441 121.63 19.1274C118.027 17.1415 114.565 16.5145 111.343 17.2641C105.171 18.6966 100.087 25.1343 96.2344 36.3986Z" fill="#49542F"/>
<path d="M65.9883 42.4827C62.871 28.1274 59.111 23.9646 56.5069 23.0014C54.2092 22.1503 52.2162 23.6599 51.3651 24.3026C50.9448 24.6213 50.5805 24.8963 50.0429 24.7527L50.5788 22.737C50.1707 22.6284 49.8765 22.8105 49.8643 22.8175C49.901 22.7948 50.0149 22.7072 50.1059 22.6389C51.1322 21.8613 53.8607 19.7966 57.2302 21.0435C61.7292 22.7089 65.3614 29.7719 68.0251 42.0378L65.9883 42.4827Z" fill="#49542F"/>
<path d="M103.273 116.996C84.9931 125.629 52.745 116.996 52.745 116.996L41.1567 32.9131L114.364 35.5155L103.273 116.996Z" fill="#F6BD48"/>
<path d="M113.215 48.2037C115.15 55.9233 114.008 64.368 110.096 71.2978C109.525 72.3083 108.791 73.3678 107.667 73.6533C106.154 74.0368 104.63 72.7602 104.142 71.2786C103.653 69.797 103.914 68.1875 104.128 66.6412C105.592 56.0442 104.559 45.0864 101.138 34.95C100.461 32.9395 98.4746 30.0341 101.462 30.5963C103.163 30.9168 105.744 34.4071 106.805 35.6785C109.835 39.3089 112.065 43.6153 113.215 48.2037Z" fill="#6A8652"/>
<path d="M52.0885 25.6508C50.8766 27.8696 50.9309 30.5368 51.0167 33.0639C51.1691 37.5402 51.3197 42.0147 51.472 46.491C51.5596 49.0812 51.6367 51.7449 50.7558 54.1827C49.8749 56.6204 47.7978 58.8095 45.2165 59.0232C43.1937 59.1896 41.2113 58.109 39.8926 56.5679C38.5738 55.025 37.8366 53.0706 37.3269 51.1057C35.5249 44.1408 36.4075 36.5175 39.7525 30.1481C41.5195 26.7838 44.0448 23.6911 47.4353 21.9748C48.9484 21.2078 54.4632 19.4074 55.8765 21.171C57.2565 22.8907 53.0027 23.9765 52.0885 25.6508Z" fill="#6A8652"/>
<path d="M10.4638 22.348C2.68283 33.0308 -0.658614 46.619 0.106696 59.8132C0.290581 62.9795 0.716143 66.1931 2.05587 69.0669C3.39561 71.9408 5.77034 74.4627 8.81582 75.3488C12.856 76.5257 17.3166 74.5747 20.1361 71.4504C22.9557 68.3262 24.4163 64.2211 25.502 60.1547C28.0852 50.4736 28.9206 40.4125 31.0956 30.6333C32.3758 24.8786 34.1604 19.1711 36.9397 13.9523C38.8853 10.2974 47.1094 2.23449 38.1358 4.10661C27.0607 6.41656 17.0941 13.2431 10.4638 22.348Z" fill="#80A457"/>
<path d="M18.1274 39.829C13.7509 47.4821 12.2483 56.5222 12.5268 65.3347C12.6879 70.4414 13.5198 75.7793 16.6055 79.851C19.6913 83.9228 25.5913 86.2222 30.1167 83.8527C34.9922 81.2993 36.2199 74.9107 36.1866 69.4064C36.1393 61.6149 34.7068 53.8848 34.5859 46.0951C34.5492 43.687 34.6455 41.2755 34.9432 38.885C35.2549 36.3947 35.2829 33.9079 36.2164 31.5542C37.092 29.344 38.409 27.3073 40.0745 25.6103C40.3827 25.2968 40.7102 24.9833 40.8923 24.5823C41.0744 24.1813 41.0762 23.6629 40.7697 23.3459C40.416 22.9816 39.8275 23.0219 39.3267 23.1077C36.9904 23.5053 34.7103 24.2916 32.6315 25.4317C31.7559 25.9115 31.1131 26.5823 30.2795 27.1006C29.2112 27.7644 28.1149 28.3178 27.122 29.1041C23.4933 31.9815 20.4198 35.8185 18.1274 39.829Z" fill="#91AF69"/>
<path d="M121.17 26.4316C128.224 39.8797 128.845 56.5274 122.814 70.4641C121.705 73.0245 119.723 75.8808 116.947 75.6023C114.42 75.3484 112.981 72.6322 112.187 70.2207C108.865 60.1228 108.912 49.2718 107.305 38.7641C106.39 32.7852 104.828 26.7731 101.963 21.4107C100.793 19.2233 93.5518 11.9205 94.7112 10.4897C96.8022 7.90476 105.744 11.2094 107.874 12.2742C113.812 15.2461 118.135 20.6471 121.17 26.4316Z" fill="#80A457"/>
<path d="M139.437 0.378091C148.278 -0.641156 157.566 0.288775 165.386 4.53914C173.205 8.7895 179.312 16.7071 179.958 25.5826C180.345 30.9047 178.048 37.0867 172.93 38.6051C169.918 39.5 166.61 38.5403 163.957 36.8556C161.304 35.1708 159.157 32.8188 156.92 30.6105C151.088 24.847 144.441 19.9189 137.257 15.9715C129.851 11.9033 122.019 10.0469 114.291 7.082C122.052 3.67751 131.024 1.3483 139.437 0.378091Z" fill="#80A457"/>
<path d="M147.735 33.3282C153.866 41.6293 156.564 52.3874 155.076 62.5992C154.6 65.8653 153.65 69.1927 151.474 71.6743C149.297 74.1559 145.649 75.5709 142.579 74.359C138.255 72.6533 137.159 67.1788 136.451 62.5851C135.232 54.6711 133.325 46.8639 130.765 39.2756C129.467 35.4263 128.001 31.6347 126.372 27.9132C124.963 24.6909 122.386 21.092 121.689 17.733C125.493 16.987 131.798 20.4318 135.083 22.2619C140.013 25.0079 144.379 28.7854 147.735 33.3282Z" fill="#91AF69"/>
</svg>
