<svg enable-background="new 0 0 24 24" height="24" viewBox="0 0 24 24" width="24" xmlns="http://www.w3.org/2000/svg"><path d="m23.1 10.208-1.296-.13c-.087-.449-.205-.89-.35-1.316l1.056-.759c.418-.301.54-.865.282-1.312l-.798-1.381c-.257-.446-.806-.623-1.277-.412l-1.182.534c-.299-.343-.623-.667-.966-.966l.534-1.183c.211-.47.034-1.019-.412-1.277l-1.381-.797c-.448-.258-1.011-.136-1.312.282l-.759 1.056c-.426-.146-.867-.263-1.316-.35l-.13-1.296c-.052-.514-.48-.901-.996-.901h-1.595c-.516 0-.944.387-.995.9l-.13 1.296c-.449.087-.89.205-1.316.35l-.759-1.055c-.3-.418-.864-.54-1.312-.282l-1.38.797c-.447.258-.624.807-.412 1.278l.534 1.182c-.344.299-.667.622-.966.966l-1.183-.535c-.47-.211-1.019-.034-1.277.413l-.797 1.38c-.258.448-.136 1.012.282 1.312l1.056.759c-.146.426-.263.867-.35 1.316l-1.296.13c-.514.052-.901.48-.901.996v1.595c0 .516.387.944.9.995l1.296.13c.087.449.205.89.35 1.316l-1.056.759c-.418.301-.54.865-.282 1.312l.797 1.381c.258.447.808.625 1.277.412l1.182-.534c.299.343.623.667.966.966l-.534 1.183c-.211.47-.034 1.019.412 1.277l1.381.797c.448.259 1.012.137 1.312-.282l.759-1.056c.426.146.867.263 1.316.35l.13 1.296c.053.513.481.9.997.9h1.595c.516 0 .944-.387.995-.9l.13-1.296c.449-.087.89-.205 1.316-.35l.759 1.056c.301.418.863.539 1.312.282l1.381-.797c.446-.258.624-.807.412-1.277l-.534-1.182c.343-.299.667-.623.966-.966l1.183.534c.47.211 1.02.035 1.277-.412l.797-1.381c.258-.447.136-1.011-.282-1.312l-1.056-.759c.146-.426.263-.867.35-1.316l1.296-.13c.513-.053.9-.481.9-.997v-1.595c0-.515-.387-.943-.9-.994zm-11.1-5.208c3.519 0 6.432 2.613 6.92 6h-4.632c-.387-.881-1.265-1.5-2.288-1.5-.093 0-.182.018-.273.028l-2.322-4.024c.803-.322 1.678-.504 2.595-.504zm-7 7c0-2.227 1.049-4.21 2.674-5.493l2.319 4.016c-.306.416-.493.923-.493 1.477s.187 1.061.493 1.476l-2.319 4.016c-1.625-1.283-2.674-3.265-2.674-5.492zm7 7c-.917 0-1.792-.182-2.595-.505l2.323-4.023c.09.01.179.028.272.028 1.023 0 1.901-.619 2.288-1.5h4.632c-.488 3.387-3.401 6-6.92 6z"/></svg>